<svg xmlns="http://www.w3.org/2000/svg" viewBox="0 0 520 620" role="img" aria-labelledby="t d">
<title id="t">ACFA Lady Justice</title><desc id="d">Stylized gold Lady Justice emblem with scales and chess crown.</desc>
<defs><linearGradient id="g" x1="0" x2="1" y1="0" y2="1"><stop offset="0" stop-color="#fff0b8"/><stop offset=".35" stop-color="#d6a84b"/><stop offset=".72" stop-color="#8e6424"/><stop offset="1" stop-color="#f2d78f"/></linearGradient><radialGradient id="r"><stop offset="0" stop-color="#d6a84b" stop-opacity=".36"/><stop offset="1" stop-color="#d6a84b" stop-opacity="0"/></radialGradient><filter id="s" x="-40%" y="-40%" width="180%" height="180%"><feDropShadow dx="0" dy="12" stdDeviation="12" flood-color="#000" flood-opacity=".58"/></filter></defs>
<circle cx="260" cy="300" r="245" fill="url(#r)"/><g filter="url(#s)" fill="none" stroke="url(#g)" stroke-width="12" stroke-linecap="round" stroke-linejoin="round">
<path d="M260 92c-38 0-68 31-68 69 0 22 10 43 28 56-41 19-68 62-68 111v150h216V328c0-49-27-92-68-111 18-13 28-34 28-56 0-38-30-69-68-69z" fill="#11100e"/>
<path d="M187 155h146"/><path d="M206 138l31 28 36-28 33 28"/><path d="M221 92l19-33 20 31 20-31 20 33"/>
<path d="M173 271L72 223"/><path d="M347 271l101-48"/><path d="M89 215v111"/><path d="M431 215v111"/>
<path d="M39 327h100l-19 38H58z" fill="#11100e"/><path d="M381 327h100l-19 38h-62z" fill="#11100e"/>
<path d="M260 246v240"/><path d="M206 486h108"/><path d="M179 532h162"/><path d="M155 566h210"/></g>
<g fill="url(#g)"><circle cx="89" cy="215" r="11"/><circle cx="431" cy="215" r="11"/><circle cx="260" cy="91" r="10"/><path d="M230 323h60v58h-60z"/><path d="M220 323l40-36 40 36z"/><rect x="249" y="330" width="22" height="51" rx="4" fill="#11100e"/></g>
<text x="260" y="605" fill="#f0d28b" text-anchor="middle" font-family="Georgia,serif" font-size="22" letter-spacing="5">ACFA</text></svg>